<svg xmlns="http://www.w3.org/2000/svg" xmlns:xlink="http://www.w3.org/1999/xlink" width="20" height="20" version="1.1" viewBox="0 0 20 20"><title>android</title><desc>Created with Sketch.</desc><g id="Page-3" fill="none" fill-rule="evenodd" stroke="none" stroke-width="1"><g id="Artboard-10" fill="#000" transform="translate(-134.000000, -10.000000)"><path id="Path-Copy" d="M147.09481,11.7501788 C146.128796,11.2619784 145.075796,11 144,11 C142.918194,11 141.874581,11.2602716 140.90519,11.7501788 L139.916426,12.3437638 C138.141136,13.6370904 137,15.6772046 137,17.5514286 L137,18.0514286 L137.5,18.0514286 L150.5,18.0514286 L151,18.0514286 L151,17.5514286 C151,15.6772046 149.858864,13.6370904 148.12049,12.3682773 L147.127145,11.7680495 L147.09481,11.7501788 Z M144,28.4085714 C147.865993,28.4085714 151,25.2745647 151,21.4085714 L151,19.5514286 L151,19.0514286 L150.5,19.0514286 L137.5,19.0514286 L137,19.0514286 L137,19.5514286 L137,21.4085714 C137,25.2720974 140.133381,28.4085714 144,28.4085714 L144,28.4085714 Z" opacity=".12"/><path id="Shape" d="M146.428571,15.8571429 C146.191878,15.8571429 146,15.6652649 146,15.4285714 C146,15.191878 146.191878,15 146.428571,15 C146.665265,15 146.857143,15.191878 146.857143,15.4285714 C146.857143,15.6652649 146.665265,15.8571429 146.428571,15.8571429 L146.428571,15.8571429 Z M146.428571,16.8571429 C147.21755,16.8571429 147.857143,16.2175496 147.857143,15.4285714 C147.857143,14.6395932 147.21755,14 146.428571,14 C145.639593,14 145,14.6395932 145,15.4285714 C145,16.2175496 145.639593,16.8571429 146.428571,16.8571429 L146.428571,16.8571429 Z M141.428571,15.8571429 C141.191878,15.8571429 141,15.6652649 141,15.4285714 C141,15.191878 141.191878,15 141.428571,15 C141.665265,15 141.857143,15.191878 141.857143,15.4285714 C141.857143,15.6652649 141.665265,15.8571429 141.428571,15.8571429 L141.428571,15.8571429 Z M141.428571,16.8571429 C142.21755,16.8571429 142.857143,16.2175496 142.857143,15.4285714 C142.857143,14.6395932 142.21755,14 141.428571,14 C140.639593,14 140,14.6395932 140,15.4285714 C140,16.2175496 140.639593,16.8571429 141.428571,16.8571429 L141.428571,16.8571429 Z M147.09481,11.7501788 C146.128796,11.2619784 145.075796,11 144,11 C142.918194,11 141.874581,11.2602716 140.90519,11.7501788 L139.916426,12.3437638 C138.141136,13.6370904 137,15.6772046 137,17.5514286 L137,18.0514286 L137.5,18.0514286 L150.5,18.0514286 L151,18.0514286 L151,17.5514286 C151,15.6772046 149.858864,13.6370904 148.12049,12.3682773 L147.127145,11.7680495 L147.09481,11.7501788 Z M146.611426,12.6248076 L147.567855,13.2005219 C149.022311,14.2645384 150,16.0124436 150,17.5514286 L150.5,17.0514286 L137.5,17.0514286 L138,17.5514286 C138,16.0124436 138.977689,14.2645384 140.469061,13.1760085 L141.388574,12.6248076 C142.188824,12.2219093 143.078616,12 144,12 C144.915584,12 145.814711,12.2236958 146.643762,12.6426784 L146.611426,12.6248076 Z M144,28.4085714 C147.865993,28.4085714 151,25.2745647 151,21.4085714 L151,19.5514286 L151,19.0514286 L150.5,19.0514286 L137.5,19.0514286 L137,19.0514286 L137,19.5514286 L137,21.4085714 C137,25.2720974 140.133381,28.4085714 144,28.4085714 L144,28.4085714 Z M144,27.4085714 C140.685887,27.4085714 138,24.7200334 138,21.4085714 L138,19.5514286 L137.5,20.0514286 L150.5,20.0514286 L150,19.5514286 L150,21.4085714 C150,24.7222799 147.313708,27.4085714 144,27.4085714 L144,27.4085714 Z"/><polygon id="Line" points="137.354 12.061 139.058 13.765 139.411 14.118 140.118 13.411 139.765 13.058 138.061 11.354 137.707 11 137 11.707"/><polygon id="Line-Copy" points="150.058 11.354 148.354 13.058 148 13.411 148.707 14.118 149.061 13.765 150.765 12.061 151.118 11.707 150.411 11"/></g></g></svg>