<svg xmlns="http://www.w3.org/2000/svg" xmlns:xlink="http://www.w3.org/1999/xlink" width="20" height="20" version="1.1" viewBox="0 0 20 20"><title>arrow_select</title><desc>Created with Sketch.</desc><g id="Page-3" fill="none" fill-rule="evenodd" stroke="none" stroke-width="1"><g id="Icons" fill="#000" transform="translate(-440.000000, -46.000000)"><g id="Group-9" transform="translate(445.000000, 50.000000)"><path id="Rectangle-1319-Copy-2" d="M7,-0.5625 L7,-1.00245535 C7,-1.5536886 6.66969036,-1.70272133 6.26223278,-1.3360095 L2,2.5 L6.26223278,6.3360095 C6.67193604,6.70474243 7,6.55338405 7,6.00245535 L7,5.5625 L3.5,2.5 L7,-0.5625 Z" transform="translate(4.500000, 2.500000) rotate(90.000000) translate(-4.500000, -2.500000)"/><path id="Rectangle-1319-Copy-8" d="M6.99959438,7.43709438 L6.99959438,6.99713902 C6.99959438,6.44590578 6.66928474,6.29687305 6.26182716,6.66358487 L1.99959438,10.4995944 L6.26182716,14.3356039 C6.67153041,14.7043368 6.99959438,14.5529784 6.99959438,14.0020497 L6.99959438,13.5620944 L3.49959438,10.4995944 L6.99959438,7.43709438 Z" transform="translate(4.499594, 10.500000) scale(1, -1) rotate(90.000000) translate(-4.499594, -10.500000)"/></g></g></g></svg>