<svg xmlns="http://www.w3.org/2000/svg" xmlns:xlink="http://www.w3.org/1999/xlink" width="20" height="20" version="1.1" viewBox="0 0 20 20"><title>clear</title><desc>Created with Sketch.</desc><g id="Page-3" fill="none" fill-rule="evenodd" stroke="none" stroke-width="1"><g id="Icons" fill="#000" transform="translate(-500.000000, -46.000000)"><path id="Combined-Shape" d="M510,63 C513.865993,63 517,59.8659932 517,56 C517,52.1340068 513.865993,49 510,49 C506.134007,49 503,52.1340068 503,56 C503,59.8659932 506.134007,63 510,63 Z M514.35,59.65 C514.55,59.85 514.55,60.17 514.35,60.35 C514.15,60.55 513.85,60.55 513.65,60.35 L510.25,56.95 L506.85,60.35 C506.65,60.55 506.33,60.55 506.15,60.35 C505.95,60.17 505.95,59.85 506.15,59.65 L509.55,56.25 L506.15,52.85 C505.95,52.65 505.95,52.35 506.15,52.15 C506.33,51.95 506.65,51.95 506.85,52.15 L510.25,55.55 L513.65,52.15 C513.85,51.95 514.15,51.95 514.35,52.15 C514.55,52.35 514.55,52.65 514.35,52.85 L510.95,56.25 L514.35,59.65 Z"/></g></g></svg>