<svg xmlns="http://www.w3.org/2000/svg" xmlns:xlink="http://www.w3.org/1999/xlink" width="20" height="20" version="1.1" viewBox="0 0 20 20"><title>export</title><desc>Created with Sketch.</desc><g id="Page-3" fill="none" fill-rule="evenodd" stroke="none" stroke-width="1"><g id="Icons" fill="#000" transform="translate(-560.000000, -16.000000)"><path id="Path-Copy" d="M576.25,24.25 L576.25,25.5 C578.3175,25.5 580,27.1825 580,29.25 C580,31.3175 578.3175,33 576.25,33 L565,33 C562.2425,33 560,30.7575 560,28 C560,25.63625 561.65375,23.66125 563.8625,23.1425 C564.3875,20.225 566.9325,18 570,18 C573.44625,18 576.25,20.80375 576.25,24.25 L576.25,24.25 Z" opacity=".12"/><path id="Mask-Copy-4" d="M576.25,24.25 L576.25,25.5 C578.3175,25.5 580,27.1825 580,29.25 C580,31.3175 578.3175,33 576.25,33 L565,33 C562.2425,33 560,30.7575 560,28 C560,25.63625 561.65375,23.66125 563.8625,23.1425 C564.3875,20.225 566.9325,18 570,18 C573.44625,18 576.25,20.80375 576.25,24.25 Z M575.25,24.25 C575.25,21.3560347 572.893965,19 570,19 C567.458126,19 565.293467,20.8368131 564.846692,23.319604 L564.730397,23.9658744 L564.09114,24.116011 C562.294113,24.5380632 561,26.1409687 561,28 C561,30.2052153 562.794785,32 565,32 L576.25,32 C577.765215,32 579,30.7652153 579,29.25 C579,27.7347847 577.765215,26.5 576.25,26.5 L575.25,26.5 L575.25,25.5 L575.25,24.25 Z"/><path id="Rectangle-1319-Copy-6" d="M567.071429,27 L569,28.6875 L569,30 L565,26.5 L569,23 L569,24.3125 L567.071429,26 L574,26 L574,27 L567.071429,27 Z" transform="translate(569.500000, 26.500000) scale(-1, -1) rotate(90.000000) translate(-569.500000, -26.500000)"/></g></g></svg>