<svg xmlns="http://www.w3.org/2000/svg" xmlns:xlink="http://www.w3.org/1999/xlink" width="20" height="20" version="1.1" viewBox="0 0 20 20"><title>extension</title><desc>Created with Sketch.</desc><g id="Page-3" fill="none" fill-rule="evenodd" stroke="none" stroke-width="1"><g id="Artboard-10" fill="#000" transform="translate(-164.000000, -10.000000)"><rect id="Rectangle-1361" width="4" height="10" x="178" y="17" opacity=".12"/><path id="Combined-Shape" d="M165,13.0008717 C165,12.4481055 165.444946,12 165.993398,12 L182.006602,12 C182.555241,12 183,12.4446309 183,13.0008717 L183,26.9991283 C183,27.5518945 182.555054,28 182.006602,28 L165.993398,28 C165.444759,28 165,27.5553691 165,26.9991283 L165,13.0008717 Z M166,13 L182,13 L182,27 L166,27 L166,13 Z M166,16 L182,16 L182,17 L166,17 L166,16 Z M177,17 L178,17 L178,27 L177,27 L177,17 Z M167,14 L168,14 L168,15 L167,15 L167,14 Z M169,14 L170,14 L170,15 L169,15 L169,14 Z M171,14 L172,14 L172,15 L171,15 L171,14 Z"/></g></g></svg>