<svg xmlns="http://www.w3.org/2000/svg" xmlns:xlink="http://www.w3.org/1999/xlink" width="20" height="20" version="1.1" viewBox="0 0 20 20"><title>history_active</title><desc>Created with Sketch.</desc><g id="Page-3" fill="none" fill-rule="evenodd" stroke="none" stroke-width="1"><g id="Artboard-10" fill="#000" transform="translate(-374.000000, -10.000000)"><g id="Group-2" transform="translate(375.000000, 12.000000)"><path id="Combined-Shape" d="M8,4.76470588 L0.909648895,1.42807007 C0.409972668,1.19292831 0,1.44882258 0,2.00247329 L0,11.9975267 C0,12.544239 0.407263683,13.1916535 0.909648895,13.4280701 L8,16.7647059 L8,16.4594958 L8,4.76470588 Z M9,4.76470588 L16.0903511,1.42807007 C16.5927363,1.1916535 17,1.45576096 17,2.00247329 L17,11.9975267 C17,12.5511774 16.5900273,13.1929283 16.0903511,13.4280701 L9,16.7647059 L9,16.4594958 L9,4.76470588 Z"/><path id="Combined-Shape" d="M1,0 L16,0 L8.5,4 L1,0 Z M3,0 L14,0 L8.5,3 L3,0 Z"/></g></g></g></svg>