<svg xmlns="http://www.w3.org/2000/svg" xmlns:xlink="http://www.w3.org/1999/xlink" width="20" height="20" version="1.1" viewBox="0 0 20 20"><title>import_active</title><desc>Created with Sketch.</desc><g id="Page-3" fill="none" fill-rule="evenodd" stroke="none" stroke-width="1"><g id="Artboard-10" fill="#000" transform="translate(-314.000000, -10.000000)"><path id="Combined-Shape" d="M323,18.0748933 L323,25 L324,25 L324,18.0752809 L325.672852,20 L327,20 L323.5,16 L320,20 L321.325684,20 L323,18.0748933 Z M330.25,18.25 L330.25,19.5 C332.3175,19.5 334,21.1825 334,23.25 C334,25.3175 332.3175,27 330.25,27 L319,27 C316.2425,27 314,24.7575 314,22 C314,19.63625 315.65375,17.66125 317.8625,17.1425 C318.3875,14.225 320.9325,12 324,12 C327.44625,12 330.25,14.80375 330.25,18.25 Z"/></g></g></svg>