<svg xmlns="http://www.w3.org/2000/svg" xmlns:xlink="http://www.w3.org/1999/xlink" width="10" height="10" version="1.1" viewBox="0 0 10 10"><title>micro_note</title><desc>Created with Sketch.</desc><g id="Page-3" fill="none" fill-rule="evenodd" stroke="none" stroke-width="1"><g id="Icons" fill="#000" transform="translate(-297.000000, -186.000000)"><path id="Rectangle-343" d="M303,187 L299.062338,187 C298.476479,187 298,187.475625 298,188.062338 L298,193.937662 C298,194.523521 298.475625,195 299.062338,195 L304.937662,195 C305.523521,195 306,194.524375 306,193.937662 L306,190 L305.117649,190 L305.117649,194.05576 L299.016807,194.05576 L299.016807,188.018587 L303,188.018587 L303,187 Z M306.640504,187.067232 L307,186.711488 L306.281009,186 L305.921513,186.355744 L301.232943,190.932768 L300.873447,191.288512 L301.592438,192 L301.951934,191.644256 L306.640504,187.067232 Z"/></g></g></svg>