<svg xmlns="http://www.w3.org/2000/svg" xmlns:xlink="http://www.w3.org/1999/xlink" width="20" height="20" version="1.1" viewBox="0 0 20 20"><title>more</title><desc>Created with Sketch.</desc><g id="Page-3" fill="none" fill-rule="evenodd" stroke="none" stroke-width="1"><g id="Icons" fill="#000" transform="translate(-367.000000, -136.000000)"><path id="Combined-Shape" d="M372,152 C372.552285,152 373,151.552285 373,151 C373,150.447715 372.552285,150 372,150 C371.447715,150 371,150.447715 371,151 C371,151.552285 371.447715,152 372,152 Z M372,147 C372.552285,147 373,146.552285 373,146 C373,145.447715 372.552285,145 372,145 C371.447715,145 371,145.447715 371,146 C371,146.552285 371.447715,147 372,147 Z M372,142 C372.552285,142 373,141.552285 373,141 C373,140.447715 372.552285,140 372,140 C371.447715,140 371,140.447715 371,141 C371,141.552285 371.447715,142 372,142 Z"/></g></g></svg>