<svg xmlns="http://www.w3.org/2000/svg" xmlns:xlink="http://www.w3.org/1999/xlink" width="20" height="20" version="1.1" viewBox="0 0 20 20"><title>new_collection_active</title><desc>Created with Sketch.</desc><g id="Page-3" fill="none" fill-rule="evenodd" stroke="none" stroke-width="1"><g id="Icons" fill="#000" transform="translate(-187.000000, -76.000000)"><g id="Group-Copy-3" transform="translate(187.000000, 79.000000)"><polygon id="Shape" points="1 5 12 5 12 7 15 7 15 10 16 10 16 13 1 13" opacity=".15"/><polygon id="Shape-Copy-9" points="1 12 16 12 16 13 1 13" opacity=".2"/><path id="Combined-Shape" d="M0,4 L12,4 L12,14 L1.00247329,14 C0.448822582,14 0,13.5443356 0,13.0046024 L0,4 Z M12,7 L15,7 L15,14 L12,14 L12,7 Z M15,10 L17,10 L17,12.9906311 C17,13.5480902 16.5561352,14 16,14 L15,14 L15,10 Z" opacity=".9"/><rect id="Rectangle-1695" width="12" height="1" x="0" y="4"/><path id="Combined-Shape" d="M0,0 L6,0 L8,2 L8,4 L0,4 L0,0 Z M8,2 L15,2 L15,4 L8,4 L8,2 Z" opacity=".6"/><path id="Rectangle-1179" d="M16,6 L13.5,6 L13,6 L13,5 L13.5,5 L16,5 L16,2.5 L16,2 L17,2 L17,2.5 L17,5 L19.5,5 L20,5 L20,6 L19.5,6 L17,6 L17,8.5 L17,9 L16,9 L16,8.5 L16,6 Z"/></g></g></g></svg>