<svg xmlns="http://www.w3.org/2000/svg" xmlns:xlink="http://www.w3.org/1999/xlink" width="20" height="20" version="1.1" viewBox="0 0 20 20"><title>new_collection</title><desc>Created with Sketch.</desc><g id="Page-3" fill="none" fill-rule="evenodd" stroke="none" stroke-width="1"><g id="Icons" fill="#000" transform="translate(-187.000000, -46.000000)"><g id="Group" transform="translate(187.000000, 49.000000)"><polygon id="Shape" points="1 5 12 5 12 7 15 7 15 10 16 10 16 13 1 13" opacity=".12"/><polygon id="Shape-Copy-9" points="1 12 16 12 16 13 1 13" opacity=".12"/><path id="Rectangle-1180" d="M15,3 L7.5,3 L5.5,1 L1,1 L1,13 L16,13 L16,10 L17,10 L17,2 L15,2 L15,3 Z M0,1.00684547 C0,0.450780073 0.45097518,0 0.990777969,0 L6,0 L8,2 L17,2 L17,12.9975267 C17,13.5511774 16.5452911,14 16.0000398,14 L0.999960201,14 C0.447697432,14 0,13.5500512 0,12.9931545 L0,1.00684547 Z M1,4 L12,4 L12,5 L1,5 L1,4 Z"/><path id="Rectangle-1179" d="M16,6 L13.5,6 L13,6 L13,5 L13.5,5 L16,5 L16,2.5 L16,2 L17,2 L17,2.5 L17,5 L19.5,5 L20,5 L20,6 L19.5,6 L17,6 L17,8.5 L17,9 L16,9 L16,8.5 L16,6 Z"/></g></g></g></svg>