<svg xmlns="http://www.w3.org/2000/svg" xmlns:xlink="http://www.w3.org/1999/xlink" width="20" height="20" version="1.1" viewBox="0 0 20 20"><title>new_note</title><desc>Created with Sketch.</desc><g id="Page-3" fill="none" fill-rule="evenodd" stroke="none" stroke-width="1"><g id="Icons" fill="#000" transform="translate(-217.000000, -46.000000)"><path id="Rectangle-343" d="M231.004058,48 L220.991884,48 C219.893397,48 219,48.8917969 219,49.9918842 L219,61.0081158 C219,62.1066027 219.891797,63 220.991884,63 L232.008116,63 C233.106603,63 234,62.1082031 234,61.0081158 L234,50.9959421 L234,52 L233,52 L233,61.0081158 C233,61.5552417 232.554995,62 232.008116,62 L220.991884,62 C220.444758,62 220,61.5549948 220,61.0081158 L220,49.9918842 C220,49.4447583 220.445005,49 220.991884,49 L230,49 L230,48 L231.004058,48 Z M224.853553,57.8535534 L235.365451,47.3416553 L235.719005,46.988102 L235.011898,46.2809952 L234.658345,46.6345486 L224.146447,57.1464466 L223.792893,57.5 L224.5,58.2071068 L224.853553,57.8535534 Z"/></g></g></svg>