<svg xmlns="http://www.w3.org/2000/svg" xmlns:xlink="http://www.w3.org/1999/xlink" width="20" height="20" version="1.1" viewBox="0 0 20 20"><title>search</title><desc>Created with Sketch.</desc><g id="Page-3" fill="none" fill-rule="evenodd" stroke="none" stroke-width="1"><g id="Icons" fill="#000" transform="translate(-400.000000, -46.000000)"><path id="Oval" d="M412.871473,58.1643659 L415.853553,61.1464466 C416.048816,61.3417088 416.048816,61.6582912 415.853553,61.8535534 C415.658291,62.0488155 415.341709,62.0488155 415.146447,61.8535534 L412.164366,58.8714727 C411.302431,59.5768174 410.200635,60 409,60 C406.238576,60 404,57.7614237 404,55 C404,52.2385763 406.238576,50 409,50 C411.761424,50 414,52.2385763 414,55 C414,56.2006351 413.576817,57.3024306 412.871473,58.1643659 Z M409,59 C411.209139,59 413,57.209139 413,55 C413,52.790861 411.209139,51 409,51 C406.790861,51 405,52.790861 405,55 C405,57.209139 406.790861,59 409,59 Z"/></g></g></svg>