<svg xmlns="http://www.w3.org/2000/svg" xmlns:xlink="http://www.w3.org/1999/xlink" width="20" height="20" version="1.1" viewBox="0 0 20 20"><title>sort_domain_active</title><desc>Created with Sketch.</desc><g id="Page-3" fill="none" fill-rule="evenodd" stroke="none" stroke-width="1"><g id="Icons" fill="#000" transform="translate(-560.000000, -106.000000)"><path id="Combined-Shape-Copy-14" d="M562,110.006845 C562,109.45078 562.444631,109 563.000872,109 L576.999128,109 C577.551894,109 578,109.449949 578,110.006845 L578,121.993155 C578,122.54922 577.555369,123 576.999128,123 L563.000872,123 C562.448106,123 562,122.550051 562,121.993155 L562,110.006845 Z M562,114 L578,114 L578,115 L562,115 L562,114 Z M564,111 L565,111 L565,112 L564,112 L564,111 Z M566,111 L567,111 L567,112 L566,112 L566,111 Z M568,111 L569,111 L569,112 L568,112 L568,111 Z"/></g></g></svg>