<svg xmlns="http://www.w3.org/2000/svg" xmlns:xlink="http://www.w3.org/1999/xlink" width="20" height="20" version="1.1" viewBox="0 0 20 20"><title>sort_domain</title><desc>Created with Sketch.</desc><g id="Page-3" fill="none" fill-rule="evenodd" stroke="none" stroke-width="1"><g id="Icons" fill="#000" transform="translate(-560.000000, -76.000000)"><rect id="Rectangle-1900" width="14" height="3" x="563" y="80" opacity=".2"/><path id="Combined-Shape" d="M562,80.0068455 C562,79.4507801 562.444631,79 563.000872,79 L576.999128,79 C577.551894,79 578,79.4499488 578,80.0068455 L578,91.9931545 C578,92.5492199 577.555369,93 576.999128,93 L563.000872,93 C562.448106,93 562,92.5500512 562,91.9931545 L562,80.0068455 Z M563,80 L577,80 L577,92 L563,92 L563,80 Z M563,83 L577,83 L577,84 L563,84 L563,83 Z M564,81 L565,81 L565,82 L564,82 L564,81 Z M566,81 L567,81 L567,82 L566,82 L566,81 Z M568,81 L569,81 L569,82 L568,82 L568,81 Z"/></g></g></svg>