<svg xmlns="http://www.w3.org/2000/svg" xmlns:xlink="http://www.w3.org/1999/xlink" width="20" height="20" version="1.1" viewBox="0 0 20 20"><title>tools_active</title><desc>Created with Sketch.</desc><g id="Page-3" fill="none" fill-rule="evenodd" stroke="none" stroke-width="1"><g id="Icons" fill="#000" transform="translate(-107.000000, -86.000000)"><path id="Oval-449" d="M116.5,105 C121.746705,105 126,100.746705 126,95.5 C126,90.2532949 121.746705,86 116.5,86 C111.253295,86 107,90.2532949 107,95.5 C107,100.746705 111.253295,105 116.5,105 Z M112.3,93 L121,93 L121,92 L112,92 L112,93 L112.3,93 Z M112.3,96 L121,96 L121,95 L112,95 L112,96 L112.3,96 Z M112.3,99 L121,99 L121,98 L112,98 L112,99 L112.3,99 Z"/></g></g></svg>