<svg xmlns="http://www.w3.org/2000/svg" xmlns:xlink="http://www.w3.org/1999/xlink" width="20" height="20" version="1.1" viewBox="0 0 20 20"><title>trash_active</title><desc>Created with Sketch.</desc><g id="Page-3" fill="none" fill-rule="evenodd" stroke="none" stroke-width="1"><g id="Icons" fill="#000" transform="translate(-650.000000, -16.000000)"><path id="Combined-Shape" d="M663,19 L663,20 L657,20 L657,19 L663,19 Z M663,19 C663,18.4 662.6,18 662,18 L658,18 C657.4,18 657,18.4 657,19 L657,20 L654,20 C653.4,20 653,20.4 653,21 L654,21 L654,32 C654,33 655,34 656,34 L664,34 C665,34 666,33 666,32 L666,21 L667,21 C667,20.4 666.6,20 666,20 L663,20 L663,19 Z M658,24 L659,24 L659,30 L658,30 L658,24 Z M661,24 L662,24 L662,30 L661,30 L661,24 Z" opacity=".9"/><rect id="Rectangle-1695" width="14" height="1" x="653" y="20"/></g></g></svg>