<svg xmlns="http://www.w3.org/2000/svg" xmlns:xlink="http://www.w3.org/1999/xlink" width="20" height="20" version="1.1" viewBox="0 0 20 20"><title>upload</title><desc>Created with Sketch.</desc><g id="Page-3" fill="none" fill-rule="evenodd" stroke="none" stroke-width="1"><g id="Icons" fill="#000" transform="translate(-530.000000, -46.000000)"><path id="Rectangle-1319-Copy-9" d="M537.071429,56 L539,57.6875 L539,59 L535,55.5 L539,52 L539,53.3125 L537.071429,55 L544,55 L544,56 L537.071429,56 Z" transform="translate(539.500000, 55.500000) scale(-1, 1) rotate(90.000000) translate(-539.500000, -55.500000)"/><path id="Shape" d="M539.5,63.9399992 C534.84,63.9399992 531.06,60.1599993 531.06,55.4999996 C531.06,50.8399998 534.84,47.06 539.5,47.06 C544.159999,47.06 547.939999,50.8399998 547.939999,55.4999996 C547.939999,60.1599993 544.159999,63.9399992 539.5,63.9399992 L539.5,63.9399992 Z" opacity=".1"/><path id="Shape-Copy-2" d="M549,55.5 C549,50.25 544.75,46 539.5,46 C534.25,46 530,50.25 530,55.5 C530,60.75 534.25,65 539.5,65 C544.75,65 549,60.75 549,55.5 Z M539.5,63.9399992 C534.84,63.9399992 531.06,60.1599993 531.06,55.4999996 C531.06,50.8399998 534.84,47.06 539.5,47.06 C544.159999,47.06 547.939999,50.8399998 547.939999,55.4999996 C547.939999,60.1599993 544.159999,63.9399992 539.5,63.9399992 L539.5,63.9399992 Z"/></g></g></svg>