<svg xmlns="http://www.w3.org/2000/svg" xmlns:xlink="http://www.w3.org/1999/xlink" width="20" height="20" version="1.1" viewBox="0 0 20 20"><title>view_list</title><desc>Created with Sketch.</desc><g id="Page-3" fill="none" fill-rule="evenodd" stroke="none" stroke-width="1"><g id="Icons" fill="#000" transform="translate(-427.000000, -196.000000)"><g id="Group-6" transform="translate(429.000000, 199.000000)"><rect id="Rectangle-1648" width="6" height="6" x="0" y="0" opacity=".12" rx="1"/><path id="Combined-Shape" d="M0,0.990777969 C0,0.443586406 0.45097518,0 0.990777969,0 L5.00922203,0 C5.55641359,0 6,0.45097518 6,0.990777969 L6,5.00922203 C6,5.55641359 5.54902482,6 5.00922203,6 L0.990777969,6 C0.443586406,6 0,5.54902482 0,5.00922203 L0,0.990777969 Z M1,1 L5,1 L5,5 L1,5 L1,1 Z"/><rect id="Rectangle-1649" width="8" height="1" x="8" y="1"/><rect id="Rectangle-1649-Copy" width="5" height="1" x="8" y="4"/></g><g id="Group-6-Copy" transform="translate(429.000000, 207.000000)"><rect id="Rectangle-1648" width="6" height="6" x="0" y="0" opacity=".12" rx="1"/><path id="Combined-Shape" d="M0,0.990777969 C0,0.443586406 0.45097518,0 0.990777969,0 L5.00922203,0 C5.55641359,0 6,0.45097518 6,0.990777969 L6,5.00922203 C6,5.55641359 5.54902482,6 5.00922203,6 L0.990777969,6 C0.443586406,6 0,5.54902482 0,5.00922203 L0,0.990777969 Z M1,1 L5,1 L5,5 L1,5 L1,1 Z"/><rect id="Rectangle-1649" width="8" height="1" x="8" y="1"/><rect id="Rectangle-1649-Copy" width="5" height="1" x="8" y="4"/></g></g></g></svg>