<svg xmlns="http://www.w3.org/2000/svg" xmlns:xlink="http://www.w3.org/1999/xlink" width="20" height="20" version="1.1" viewBox="0 0 20 20"><title>web</title><desc>Created with Sketch.</desc><g id="Page-3" fill="none" fill-rule="evenodd" stroke="none" stroke-width="1"><g id="Icons" fill="#000" transform="translate(-307.000000, -76.000000)"><rect id="Rectangle-1361" width="4" height="8" x="320" y="84" opacity=".15"/><path id="Combined-Shape" d="M309,80.0068455 C309,79.4507801 309.444631,79 310.000872,79 L323.999128,79 C324.551894,79 325,79.4499488 325,80.0068455 L325,91.9931545 C325,92.5492199 324.555369,93 323.999128,93 L310.000872,93 C309.448106,93 309,92.5500512 309,91.9931545 L309,80.0068455 Z M310,80 L324,80 L324,92 L310,92 L310,80 Z M310,83 L324,83 L324,84 L310,84 L310,83 Z M319,84 L320,84 L320,92 L319,92 L319,84 Z M311,81 L312,81 L312,82 L311,82 L311,81 Z M313,81 L314,81 L314,82 L313,82 L313,81 Z M315,81 L316,81 L316,82 L315,82 L315,81 Z"/></g></g></svg>